<svg width="25" height="25" viewBox="0 0 25 25" fill="none" xmlns="http://www.w3.org/2000/svg">
<rect width="25" height="25" rx="12.5" fill="white"/>
<g clip-path="url(#clip0_145_2110)">
<path d="M9.85056 7.70588C12.8674 7.70588 15.3131 6.65243 15.3131 5.35294C15.3131 4.05345 12.8674 3 9.85056 3C6.83371 3 4.38806 4.05345 4.38806 5.35294C4.38806 6.65243 6.83371 7.70588 9.85056 7.70588Z" fill="#CCCC66"/>
<path d="M15.3261 18.3268H15.3065C15.3065 18.3268 15.313 18.3856 15.313 18.4118C15.313 19.7124 12.8693 20.7647 9.85051 20.7647C6.83176 20.7647 4.38801 19.7124 4.38801 18.4118C4.38801 18.3856 4.38801 18.353 4.38801 18.3268H4.36841V7.11768H4.38801C5.04795 8.11768 7.25648 8.8497 9.87665 8.8497C12.4968 8.8497 14.5943 8.15689 15.3195 7.19611V18.3268H15.3261Z" fill="#CCCC66"/>
<path d="M19.7954 12.6666H11.1247C10.2947 12.6666 9.62183 13.3397 9.62183 14.1699V19.1764C9.62183 20.0067 10.2947 20.6797 11.1247 20.6797H19.7954C20.6254 20.6797 21.2982 20.0067 21.2982 19.1764V14.1699C21.2982 13.3397 20.6254 12.6666 19.7954 12.6666Z" fill="#66CCCC" stroke="#4D4D4D" stroke-width="0.75" stroke-miterlimit="10"/>
<path d="M14.6074 14.5621V15.549L13.1503 16.6078L14.6074 17.6667V18.6536L12.3793 17.0327V16.1765L14.6074 14.5555V14.5621Z" fill="#333333"/>
<path d="M16.2344 14.5621L18.4625 16.183V17.0393L16.2344 18.6602V17.6732L17.6915 16.6144L16.2344 15.5556V14.5687V14.5621Z" fill="#333333"/>
</g>
<defs>
<clipPath id="clip0_145_2110">
<rect width="18" height="18" fill="white" transform="translate(4 3)"/>
</clipPath>
</defs>
</svg>
