<svg width="22" height="22" viewBox="0 0 22 22" fill="none" xmlns="http://www.w3.org/2000/svg">
<g clip-path="url(#clip0_125_5373)">
<path fill-rule="evenodd" clip-rule="evenodd" d="M11.4089 9.249C11.2874 9.24076 11.1675 9.22653 11.0495 9.20662C10.6312 10.0417 9.76753 10.615 8.76993 10.615C7.36274 10.615 6.22198 9.47429 6.22198 8.0671C6.22198 6.91752 6.9833 5.94575 8.02925 5.62848C8.02938 3.6245 9.65395 2 11.658 2C13.0513 2 14.2612 2.78526 14.8692 3.93735C15.2232 3.75109 15.6263 3.64567 16.0541 3.64567C17.4613 3.64567 18.602 4.78643 18.602 6.19362C18.602 6.639 18.4878 7.05768 18.2869 7.42196C18.9944 7.86354 19.4651 8.649 19.4651 9.5444C19.4651 10.6291 18.7743 11.5525 17.8087 11.8986C17.5554 12.0222 17.1968 12.13 16.7653 12.1126C16.0511 12.0838 12.8968 12.1006 11.4089 12.1126V9.249Z" fill="#EBEDEF"/>
<path fill-rule="evenodd" clip-rule="evenodd" d="M11.0495 9.20662C11.1675 9.22653 11.2874 9.24076 11.4089 9.249V12.1127C12.8968 12.1007 16.0511 12.0839 16.7653 12.1127C17.1969 12.1301 17.5555 12.0221 17.8089 11.8985C18.7744 11.5523 19.4651 10.629 19.4651 9.5444C19.4651 8.649 18.9944 7.86354 18.2869 7.42196C18.4878 7.05768 18.602 6.639 18.602 6.19362C18.602 5.11933 17.9372 4.20032 16.9965 3.82562L11.3383 8.04742L11.0589 8.48667L11.0253 9.25377C11.0335 9.23815 11.0416 9.22243 11.0495 9.20662Z" fill="#CDD7DB"/>
<g clip-path="url(#clip1_125_5373)">
<path d="M10.8438 7.166C10.7909 7.11309 10.7281 7.07112 10.659 7.04255C10.5899 7.01363 10.5158 6.99917 10.441 6.99917C10.3663 6.99917 10.2922 7.01363 10.2231 7.04255C10.1539 7.07112 10.0911 7.11309 10.0382 7.166C9.98534 7.2189 9.94337 7.28168 9.9148 7.35081C9.88588 7.41994 9.87142 7.49401 9.87142 7.56878C9.87142 7.64355 9.88588 7.71762 9.9148 7.78675C9.94337 7.85588 9.98534 7.91866 10.0382 7.97156C10.1451 8.07843 10.2897 8.13839 10.441 8.13839C10.5923 8.13839 10.7369 8.07843 10.8438 7.97156C10.9507 7.8647 11.0106 7.71974 11.0106 7.56878C11.0106 7.41783 10.9507 7.27287 10.8438 7.166ZM2.53492 7.02527V20H7.00115V6.46095H3.09924C2.78781 6.46095 2.53492 6.71384 2.53492 7.02527Z" fill="#546E7A"/>
<path d="M10.8438 7.166C10.7909 7.11309 10.7281 7.07112 10.659 7.04255C10.5899 7.01363 10.5158 6.99917 10.441 6.99917C10.3663 6.99917 10.2922 7.01363 10.2231 7.04255C10.1539 7.07112 10.0911 7.11309 10.0382 7.166C9.98534 7.2189 9.94337 7.28168 9.9148 7.35081C9.88588 7.41994 9.87142 7.49401 9.87142 7.56878C9.87142 7.64355 9.88588 7.71762 9.9148 7.78675C9.94337 7.85588 9.98534 7.91866 10.0382 7.97156C10.1451 8.07843 10.2897 8.13839 10.441 8.13839C10.5923 8.13839 10.7369 8.07843 10.8438 7.97156C10.9507 7.8647 11.0106 7.71974 11.0106 7.56878C11.0106 7.41783 10.9507 7.27287 10.8438 7.166ZM2.53492 7.02527V20H7.00115V6.46095H3.09924C2.78781 6.46095 2.53492 6.71384 2.53492 7.02527Z" fill="#546E7A"/>
<path d="M11.0106 7.56877C11.0106 7.71972 10.9507 7.86468 10.8438 7.97155C10.7369 8.07842 10.592 8.13838 10.441 8.13838C10.2901 8.13838 10.1451 8.07842 10.0382 7.97155L10.8438 7.16599C10.9507 7.27285 11.0106 7.41781 11.0106 7.56877Z" fill="black"/>
<path d="M11.0106 7.56877C11.0106 7.71972 10.9507 7.86468 10.8438 7.97155C10.7369 8.07842 10.592 8.13838 10.441 8.13838C10.2901 8.13838 10.1451 8.07842 10.0382 7.97155L10.8438 7.16599C10.9507 7.27285 11.0106 7.41781 11.0106 7.56877Z" fill="#68BA1C"/>
<path d="M10.8438 7.16597L10.0382 7.97154C9.98534 7.91863 9.94337 7.85585 9.9148 7.78672C9.88588 7.71759 9.87141 7.64353 9.87141 7.56875C9.87141 7.49398 9.88588 7.41992 9.9148 7.35079C9.94337 7.28166 9.98534 7.21888 10.0382 7.16597C10.0911 7.11307 10.1539 7.0711 10.2231 7.04253C10.2922 7.01361 10.3663 6.99915 10.441 6.99915C10.5158 6.99915 10.5899 7.01361 10.659 7.04253C10.7281 7.0711 10.7909 7.11307 10.8438 7.16597Z" fill="black"/>
<path d="M10.8438 7.16597L10.0382 7.97154C9.98534 7.91863 9.94337 7.85585 9.9148 7.78672C9.88588 7.71759 9.87141 7.64353 9.87141 7.56875C9.87141 7.49398 9.88588 7.41992 9.9148 7.35079C9.94337 7.28166 9.98534 7.21888 10.0382 7.16597C10.0911 7.11307 10.1539 7.0711 10.2231 7.04253C10.2922 7.01361 10.3663 6.99915 10.441 6.99915C10.5158 6.99915 10.5899 7.01361 10.659 7.04253C10.7281 7.0711 10.7909 7.11307 10.8438 7.16597Z" fill="#85D435"/>
<path d="M7.00114 8.70906H3.10452V10.9766H7.00114V8.70906Z" fill="#68808C"/>
<path d="M7.00114 11.5126H3.10452V13.7802H7.00114V11.5126Z" fill="#68808C"/>
<path d="M7.00114 14.3554H3.10452V16.6233H7.00114V14.3554Z" fill="#68808C"/>
<path d="M7.00114 17.1795H3.10452V19.4473H7.00114V17.1795Z" fill="#68808C"/>
<path d="M7.00115 8.70906H4.78373V9.28784H7.00115V8.70906Z" fill="#6CA7C2"/>
<path d="M7.00115 11.5126H4.78373V12.0914H7.00115V11.5126Z" fill="#6CA7C2"/>
<path d="M7.00115 14.3554H4.78373V14.9346H7.00115V14.3554Z" fill="#6CA7C2"/>
<path d="M7.00115 17.1795H4.78373V17.7586H7.00115V17.1795Z" fill="#6CA7C2"/>
<path d="M9.28417 8.70906H7.00114V9.28784H9.28417V8.70906Z" fill="#28B5F5"/>
<path d="M11.0096 8.70906V10.9766H7.00114V9.28784H9.28417V8.70906H11.0096Z" fill="#546E7A"/>
<path d="M9.28417 11.5126H7.00114V12.0914H9.28417V11.5126Z" fill="#28B5F5"/>
<path d="M11.0096 11.5126V13.7802H7.00114V12.0914H9.28417V11.5126H11.0096Z" fill="#546E7A"/>
<path d="M9.28417 14.3554H7.00114V14.9346H9.28417V14.3554Z" fill="#28B5F5"/>
<path d="M11.0096 14.3554V16.6233H7.00114V14.9346H9.28417V14.3554H11.0096Z" fill="#546E7A"/>
<path d="M9.28417 17.1795H7.00114V17.7586H9.28417V17.1795Z" fill="#28B5F5"/>
<path d="M11.0096 17.1795V19.4473H7.00114V17.7586H9.28417V17.1795H11.0096Z" fill="#546E7A"/>
<path d="M11.0378 6.46095H7.00114V8.70906H11.0096V10.9766H7.00114V11.5127H11.0096V13.7802H7.00114V14.3554H11.0096V16.6233H7.00114V17.1795H11.0096V19.4473H7.00114V20H11.5668V6.99C11.5668 6.69797 11.3298 6.46095 11.0378 6.46095ZM10.8438 7.97156C10.7369 8.07843 10.592 8.13839 10.441 8.13839C10.2901 8.13839 10.1451 8.07843 10.0382 7.97156C9.98533 7.91866 9.94336 7.85588 9.91479 7.78675C9.88587 7.71762 9.87141 7.64355 9.87141 7.56878C9.87141 7.49401 9.88587 7.41994 9.91479 7.35081C9.94336 7.28168 9.98533 7.2189 10.0382 7.166C10.0911 7.11309 10.1539 7.07112 10.2231 7.04255C10.2922 7.01363 10.3662 6.99917 10.441 6.99917C10.5158 6.99917 10.5899 7.01363 10.659 7.04255C10.7281 7.07112 10.7909 7.11309 10.8438 7.166C10.9507 7.27287 11.0106 7.41783 11.0106 7.56878C11.0106 7.71974 10.9507 7.8647 10.8438 7.97156Z" fill="#445A64"/>
<path d="M11.0106 7.56875C11.0106 7.71971 10.9507 7.86467 10.8438 7.97154C10.7369 8.07841 10.592 8.13836 10.441 8.13836C10.2901 8.13836 10.1451 8.07841 10.0382 7.97154C9.98534 7.91863 9.94337 7.85585 9.9148 7.78672C9.88588 7.71759 9.87141 7.64353 9.87141 7.56875C9.87141 7.49398 9.88588 7.41992 9.9148 7.35079C9.94337 7.28166 9.98534 7.21888 10.0382 7.16597C10.0911 7.11307 10.1539 7.0711 10.2231 7.04253C10.2922 7.01361 10.3663 6.99915 10.441 6.99915C10.5158 6.99915 10.5899 7.01361 10.659 7.04253C10.7281 7.0711 10.7909 7.11307 10.8438 7.16597C10.9507 7.27284 11.0106 7.4178 11.0106 7.56875Z" fill="black"/>
<path d="M10.8438 7.16596C10.9507 7.27279 11.0107 7.41769 11.0107 7.56877C11.0107 7.71986 10.9507 7.86475 10.8438 7.97159C10.737 8.07842 10.5921 8.13844 10.441 8.13844C10.2899 8.13844 10.145 8.07842 10.0382 7.97159L10.441 7.56877L10.8438 7.16596Z" fill="#D9D9D9" fill-opacity="0.48"/>
<path d="M10.8438 7.16596C10.9507 7.27279 11.0107 7.41769 11.0107 7.56877C11.0107 7.71986 10.9507 7.86475 10.8438 7.97159C10.737 8.07842 10.5921 8.13844 10.441 8.13844C10.2899 8.13844 10.145 8.07842 10.0382 7.97159L10.441 7.56877L10.8438 7.16596Z" fill="#68BA1C"/>
<path d="M10.0382 7.97159C9.98531 7.91869 9.94335 7.85589 9.91472 7.78677C9.88609 7.71766 9.87136 7.64358 9.87136 7.56877C9.87136 7.49396 9.88609 7.41988 9.91472 7.35077C9.94335 7.28165 9.98531 7.21885 10.0382 7.16595C10.0911 7.11306 10.1539 7.07109 10.223 7.04247C10.2921 7.01384 10.3662 6.9991 10.441 6.9991C10.5158 6.9991 10.5899 7.01384 10.659 7.04247C10.7281 7.0711 10.7909 7.11306 10.8438 7.16596L10.441 7.56877L10.0382 7.97159Z" fill="#D9D9D9" fill-opacity="0.48"/>
<path d="M10.0382 7.97159C9.98531 7.91869 9.94335 7.85589 9.91472 7.78677C9.88609 7.71766 9.87136 7.64358 9.87136 7.56877C9.87136 7.49396 9.88609 7.41988 9.91472 7.35077C9.94335 7.28165 9.98531 7.21885 10.0382 7.16595C10.0911 7.11306 10.1539 7.07109 10.223 7.04247C10.2921 7.01384 10.3662 6.9991 10.441 6.9991C10.5158 6.9991 10.5899 7.01384 10.659 7.04247C10.7281 7.0711 10.7909 7.11306 10.8438 7.16596L10.441 7.56877L10.0382 7.97159Z" fill="#85D435"/>
</g>
</g>
<defs>
<clipPath id="clip0_125_5373">
<rect width="18" height="18" fill="white" transform="translate(2 2)"/>
</clipPath>
<clipPath id="clip1_125_5373">
<rect width="9.03192" height="13.5391" fill="white" transform="translate(2.53492 6.46095)"/>
</clipPath>
</defs>
</svg>
