<svg width="24" height="24" viewBox="0 0 24 24" fill="none" xmlns="http://www.w3.org/2000/svg">
<g clip-path="url(#clip0_190_3449)">
<rect x="3" y="3.96429" width="18" height="16.0714" fill="#808080"/>
<rect x="3.64478" y="7.20398" width="5.14647" height="2.59426" fill="white"/>
<rect x="3.64478" y="10.4441" width="5.14647" height="2.59426" fill="white"/>
<rect x="3.64478" y="13.6523" width="5.14647" height="2.59305" fill="#F4F7F9"/>
<rect x="3.64478" y="16.866" width="5.14647" height="2.59426" fill="#F4F7F9"/>
<rect x="9.44495" y="7.20398" width="10.9231" height="12.2563" fill="#F4F7F9"/>
<path fill-rule="evenodd" clip-rule="evenodd" d="M9.44499 7.20398V19.4602H3.64478V7.20398H3.64479V9.79822H8.79126V7.20398H9.44499ZM8.79129 10.4366H3.64482V13.0308H8.79129V10.4366ZM3.64482 13.6512H8.79129V16.2454H3.64482V13.6512ZM8.79129 16.8658H3.64482V19.46H8.79129V16.8658Z" fill="#B3B3B3"/>
<ellipse cx="14.0545" cy="9.20218" rx="4.04367" ry="1.35444" fill="#EDC87E"/>
<path d="M14.0545 11.1106C16.2878 11.1106 18.0982 10.5042 18.0982 9.7562V17.7657C18.0982 18.5138 16.2878 19.4568 14.0545 19.4568C11.8213 19.4568 10.0109 18.5138 10.0109 17.7657V9.7562C10.0109 10.5042 11.8213 11.1106 14.0545 11.1106Z" fill="#EDC87E"/>
<path d="M20.1526 13.024C18.0493 9.88991 15.906 11.4576 14.9774 12.6648L14.0546 11.7204V14.9283L17.624 14.1796L15.8149 13.3421C17.4168 10.9323 18.7829 12.5945 19.4039 13.5986L20.1526 13.024Z" fill="#4D82B8" stroke="white" stroke-width="0.321429"/>
</g>
<defs>
<clipPath id="clip0_190_3449">
<rect width="18" height="18" fill="white" transform="translate(3 3)"/>
</clipPath>
</defs>
</svg>
